<?xml version="1.0" encoding="iso-8859-1"?>
<svg  xmlns="http://www.w3.org/2000/svg" xmlns:xlink="http://www.w3.org/1999/xlink" x="0px" y="0px"
	 viewBox="0 0 483.083 483.083" style="enable-background:new 0 0 483.083 483.083;">
	<g>
		<path d="M195.04,375.7c42.217,0,81.033-13.883,112.483-37.4l139.683,139.683c3.4,3.4,7.65,5.1,11.9,5.1s8.783-1.7,11.9-5.1
			c6.517-6.517,6.517-17.283,0-24.083L332.74,315.35c30.883-33.433,50.15-78.2,50.15-127.5C382.89,84.433,298.74,0,195.04,0
			S7.19,84.433,7.19,187.85S91.34,375.7,195.04,375.7z M195.04,34c84.717,0,153.85,68.85,153.85,153.85S280.04,341.7,195.04,341.7
			c-84.717,0-153.85-68.85-153.85-153.85S110.04,34,195.04,34z"/>
		<path d="M123.073,207.117H264.74c9.35,0,17-7.65,17-17s-7.65-17-17-17H123.073c-9.35,0-17,7.65-17,17
			S113.723,207.117,123.073,207.117z"/>
	</g>
</svg>
